<svg width="62" height="68" viewBox="0 0 62 68" fill="none" xmlns="http://www.w3.org/2000/svg">
<path d="M34.7297 26.9175L34.8045 27.1955L35.0825 27.2703L37.3148 27.8714C37.5814 27.9431 37.8558 27.7852 37.9276 27.5185L41.4266 28.4606C41.3548 28.7273 41.5127 29.0016 41.7794 29.0734L46.244 30.2755C46.5106 30.3473 46.785 30.1894 46.8568 29.9227L50.3557 30.8648C50.2839 31.1314 50.4419 31.4058 50.7085 31.4776L55.1731 32.6797C55.4398 32.7515 55.7141 32.5935 55.7859 32.3269L59.2849 33.269C59.2131 33.5356 59.3711 33.81 59.6377 33.8818L60.0768 34L59.6377 34.1182C59.3711 34.19 59.2131 34.4644 59.2849 34.731L55.7859 35.6731C55.7141 35.4065 55.4398 35.2485 55.1731 35.3203L50.7085 36.5224C50.4419 36.5942 50.2839 36.8686 50.3557 37.1352L46.8568 38.0773C46.785 37.8106 46.5106 37.6527 46.244 37.7245L41.7794 38.9266C41.5127 38.9984 41.3548 39.2727 41.4266 39.5394L37.9276 40.4815C37.8558 40.2148 37.5814 40.0569 37.3148 40.1286L35.0825 40.7297L34.8045 40.8045L34.7297 41.0825L34.1286 43.3148C34.0569 43.5814 34.2148 43.8558 34.4815 43.9276L33.5394 47.4266C33.2727 47.3548 32.9984 47.5127 32.9266 47.7794L31.7245 52.244C31.6527 52.5106 31.8106 52.785 32.0773 52.8568L31.1352 56.3557C30.8686 56.2839 30.5942 56.4419 30.5224 56.7085L29.3203 61.1731C29.2485 61.4398 29.4065 61.7141 29.6731 61.7859L28.731 65.2849C28.4644 65.2131 28.19 65.3711 28.1182 65.6377L28 66.0768L27.8818 65.6377C27.81 65.3711 27.5356 65.2131 27.269 65.2849L26.3269 61.7859C26.5935 61.7141 26.7515 61.4398 26.6797 61.1731L25.4776 56.7085C25.4058 56.4419 25.1314 56.2839 24.8648 56.3557L23.9227 52.8568C24.1894 52.785 24.3473 52.5106 24.2755 52.244L23.0734 47.7794C23.0016 47.5127 22.7273 47.3548 22.4606 47.4266L21.5185 43.9276C21.7852 43.8558 21.9432 43.5814 21.8714 43.3148L21.2703 41.0825L21.1955 40.8045L20.9175 40.7297L18.6852 40.1286C18.4186 40.0569 18.1442 40.2148 18.0724 40.4815L14.5734 39.5394C14.6452 39.2727 14.4873 38.9984 14.2206 38.9266L9.75604 37.7245C9.4894 37.6527 9.21504 37.8106 9.14324 38.0773L5.64427 37.1352C5.71606 36.8686 5.5581 36.5942 5.29146 36.5224L0.826872 35.3203C0.560226 35.2485 0.285866 35.4065 0.214072 35.6731L-3.2849 34.731C-3.21311 34.4644 -3.37107 34.19 -3.63771 34.1182L-4.07685 34L-3.63771 33.8818C-3.37107 33.81 -3.21311 33.5356 -3.2849 33.269L0.21407 32.3269C0.285864 32.5935 0.560224 32.7515 0.82687 32.6797L5.29146 31.4776C5.5581 31.4058 5.71606 31.1314 5.64427 30.8648L9.14324 29.9227C9.21504 30.1894 9.4894 30.3473 9.75604 30.2755L14.2206 29.0734C14.4873 29.0016 14.6452 28.7273 14.5734 28.4606L18.0724 27.5185C18.1442 27.7852 18.4186 27.9432 18.6852 27.8714L20.9175 27.2703L21.1955 27.1955L21.2703 26.9175L21.8714 24.6852C21.9431 24.4186 21.7852 24.1442 21.5185 24.0724L22.4606 20.5734C22.7273 20.6452 23.0016 20.4873 23.0734 20.2206L24.2755 15.756C24.3473 15.4894 24.1894 15.215 23.9227 15.1432L24.8648 11.6443C25.1314 11.7161 25.4058 11.5581 25.4776 11.2915L26.6797 6.82687C26.7515 6.56023 26.5935 6.28587 26.3269 6.21407L27.269 2.7151C27.5356 2.78689 27.81 2.62893 27.8818 2.36229L28 1.92315L28.1182 2.36229C28.19 2.62893 28.4644 2.78689 28.731 2.7151L29.6731 6.21407C29.4065 6.28586 29.2485 6.56022 29.3203 6.82687L30.5224 11.2915C30.5942 11.5581 30.8686 11.7161 31.1352 11.6443L32.0773 15.1432C31.8106 15.215 31.6527 15.4894 31.7245 15.756L32.9266 20.2206C32.9984 20.4873 33.2727 20.6452 33.5394 20.5734L34.4815 24.0724C34.2148 24.1442 34.0569 24.4186 34.1286 24.6852L34.7297 26.9175Z" stroke="#595FE8" stroke-opacity="0.8" stroke-linecap="round" stroke-dasharray="4 4"/>
</svg>
