<svg width="63" height="69" viewBox="0 0 63 69" fill="none" xmlns="http://www.w3.org/2000/svg">
<path d="M21.314 4.88088L24.7713 2.88479L25.5213 4.18383L27.25 3.18579C27.9023 2.80916 28.5918 2.52614 29.2999 2.33643L28.9118 0.887523C30.6066 0.4335 32.3934 0.4335 34.0882 0.887523L33.7001 2.33643C34.4082 2.52614 35.0977 2.80916 35.75 3.18579L37.4787 4.18383L38.2287 2.88479L41.686 4.88088L40.936 6.17991L44.3933 8.176L45.1433 6.87696L48.6006 8.87304L47.8506 10.1721L51.3079 12.1682L52.0579 10.8691L55.5152 12.8652L54.7652 14.1642L56.4939 15.1623C57.1462 15.5389 57.7361 15.9945 58.2544 16.5129L59.3151 15.4523C60.5557 16.693 61.4492 18.2405 61.9034 19.9352L60.4545 20.3235C60.6443 21.0317 60.7439 21.7702 60.7439 22.5235V24.5196H62.2439V28.5118H60.7439V32.5039H62.2439V36.4961H60.7439V40.4883H62.2439V44.4804H60.7439V46.4765C60.7439 47.2298 60.6443 47.9683 60.4545 48.6765L61.9034 49.0648C61.4492 50.7595 60.5557 52.307 59.3151 53.5477L58.2544 52.4871C57.7361 53.0055 57.1462 53.4611 56.4939 53.8377L54.7652 54.8358L55.5152 56.1348L52.0579 58.1309L51.3079 56.8318L47.8506 58.8279L48.6006 60.127L45.1433 62.123L44.3933 60.824L40.936 62.8201L41.686 64.1191L38.2287 66.1152L37.4787 64.8162L35.75 65.8142C35.0977 66.1908 34.4082 66.4739 33.7001 66.6636L34.0882 68.1125C32.3934 68.5665 30.6066 68.5665 28.9118 68.1125L29.2999 66.6636C28.5918 66.4739 27.9023 66.1908 27.25 65.8142L25.5213 64.8162L24.7713 66.1152L21.314 64.1191L22.064 62.8201L18.6067 60.824L17.8567 62.123L14.3994 60.127L15.1494 58.8279L11.6921 56.8318L10.9421 58.1309L7.48476 56.1348L8.23476 54.8358L6.5061 53.8377C5.85376 53.4611 5.26395 53.0055 4.74558 52.4871L3.68486 53.5477C2.44425 52.307 1.55084 50.7595 1.09662 49.0648L2.54549 48.6765C2.3557 47.9683 2.2561 47.2298 2.2561 46.4765V44.4804H0.756098V40.4883H2.2561V36.4961H0.756098V32.5039H2.2561V28.5118H0.756098V24.5196H2.2561V22.5235C2.2561 21.7702 2.3557 21.0317 2.54549 20.3235L1.09662 19.9352C1.55084 18.2405 2.44425 16.693 3.68486 15.4523L4.74558 16.5129C5.26395 15.9945 5.85376 15.5389 6.5061 15.1623L8.23476 14.1642L7.48476 12.8652L10.9421 10.8691L11.6921 12.1682L15.1494 10.1721L14.3994 8.87304L17.8567 6.87696L18.6067 8.176L22.064 6.17991L21.314 4.88088Z" stroke="#595FE8" stroke-opacity="0.8" stroke-width="3" stroke-dasharray="4 4"/>
</svg>
