# File generated by FabConvert.com - Free Image and 3D model conversion tools

mtllib shape2.mtl

# _0
o obj1
v -1.3322676E-15 1.9984014E-15 0
v 2 9.992007E-16 0
v 4 0 0
v -6.661338E-16 2 0
v 0 4 0
vn 0 0 -1
usemtl mat0
f 4//1 2//1 1//1
f 5//1 3//1 2//1
f 2//1 4//1 5//1
# Vertices: 5, normals: 1, texture coordinates: 0, faces: 3

# _1
o obj2
v 4 0 0
v 2 4.9960036E-16 0
v -6.661338E-16 9.992007E-16 0
v 2 0 1
v 0 0 2
vn -2.4980018E-16 -1 -4.9960036E-16
usemtl mat1
f 9//2 7//2 6//2
f 10//2 8//2 7//2
f 7//2 9//2 10//2
# Vertices: 5, normals: 1, texture coordinates: 0, faces: 3

# _2
o obj3
v 0 4 0
v -3.330669E-16 2 0
v -6.661338E-16 9.992007E-16 0
v 0 2 1
v 0 0 2
vn 1 -1.6653345E-16 -3.330669E-16
usemtl mat2
f 14//3 12//3 11//3
f 15//3 13//3 12//3
f 12//3 14//3 15//3
# Vertices: 5, normals: 1, texture coordinates: 0, faces: 3

# _3
o obj4
v 0 4 0
v 2 2 0
v 4 0 0
v 0 2 1
v 0 0 2
vn 0.4082483 0.4082483 0.8164966
usemtl mat1
f 19//4 17//4 16//4
f 20//4 18//4 17//4
f 17//4 19//4 20//4
# Vertices: 5, normals: 1, texture coordinates: 0, faces: 3

