<svg width="36" height="36" viewBox="0 0 36 36" fill="none" xmlns="http://www.w3.org/2000/svg">
<rect width="36" height="36" rx="8" fill="#595959"/>
<path d="M16.8311 25.8379C17.5078 25.8379 18.0176 25.3369 18.0176 24.6514V21.5049H18.2373C21.4453 21.5049 23.4053 22.4453 24.7852 25.0117C25.1367 25.6533 25.5586 25.8027 26.0244 25.8027C26.6396 25.8027 27.1143 25.2227 27.1143 24.1064C27.1143 17.7256 24.293 13.832 18.2373 13.832L18.0176 13.832V10.7031C18.0176 10.0176 17.5078 9.47266 16.8135 9.47266C16.3477 9.47266 16.0137 9.66602 15.5039 10.1406L8.54297 16.627C8.2002 16.9521 8.06836 17.3213 8.06836 17.6553C8.06836 17.9805 8.2002 18.3584 8.54297 18.6836L15.5039 25.2139C15.9697 25.6533 16.3477 25.8379 16.8311 25.8379Z" fill="white"/>
</svg>
