# Apple ModelIO OBJ File: Asteroid_6-2
mtllib Asteroid_6-2.mtl
g 
v 6.35133 -4.8762 -237.069
v 35.4708 -4.8762 -207.95
v 35.4708 -5.8762 -207.95
v 6.35133 -5.8762 -237.069
v 6.35133 -5.8762 -227.801
v 6.35133 -4.8762 -232.435
v 6.35133 -4.8762 -227.801
v 6.35133 -5.8762 -218.533
v 6.35133 -4.8762 -218.533
v 6.35133 -4.8762 -223.167
v 6.35133 -5.8762 -223.167
v 7.16187 -5.8762 -214.471
v 7.16187 -4.8762 -214.471
v 9.45112 -5.8762 -211.05
v 9.45112 -4.8762 -211.05
v 16.9347 -5.8762 -207.95
v 16.9347 -4.8762 -207.95
v 12.8965 -4.8762 -208.751
v 12.8965 -5.8762 -208.751
v 21.5687 -5.8762 -207.95
v 21.5687 -4.8762 -207.95
v 26.2027 -5.8762 -207.95
v 26.2027 -4.8762 -207.95
v 30.8367 -4.8762 -207.95
v 30.8367 -5.8762 -207.95
vn 0.707107 0 -0.707107
vn -1 0 0
vn -0.923414 0 0.383806
vn -1 0 -1.95461e-07
vn -0.707107 0 0.707107
vn 0 0 1
vn -0.38156 0 0.924344
vn 0 -1 0
vn 0 1 0
vt 0.983399 0
vt 0.983399 0.682165
vt 0.998535 0.682165
vt 0.998535 0
vt 0 0.0219679
vt 0.153855 0.0219679
vt 0.0769275 0.0385686
vt 0 0.0385686
vt 0.153855 0.0385686
vt 0.30771 0.0219679
vt 0.30771 0.0385686
vt 0.230782 0.0385686
vt 0.230782 0.0219679
vt 0.0692039 0
vt 0.0692039 0.0166006
vt 0 0.0166006
vt 0 0
vt 0.137986 0
vt 0.137986 0.0166006
vt 0.275973 0
vt 0.275973 0.0166006
vt 0.20719 0.0166006
vt 0.20719 0
vt 0.981935 0.0769275
vt 0.966799 0.0769275
vt 0.966799 0
vt 0.981935 0
vt 0.981935 0.153855
vt 0.966799 0.153855
vt 0.981935 0.30771
vt 0.966799 0.30771
vt 0.966799 0.230782
vt 0.981935 0.230782
vt 0.636788 0
vt 0.483399 0
vt 0.965334 0.406472
vt 0.713482 0
vt 0.965334 0.329544
vt 0.914032 0.0514582
vt 0.857403 0.0134554
vt 0.790177 0
vt 0.965334 0.252617
vt 0.965334 0.17569
vt 0.965334 0.483399
vt 0.952082 0.108653
vt 0.0766944 0.0439359
vt 0.481935 0.527335
vt 0 0.0439359
vt 0.153389 0.0439359
vt 0.481935 0.450408
vt 0.306777 0.0439359
vt 0.481935 0.296553
vt 0.230083 0.0439359
vt 0.481935 0.37348
vt 0.374004 0.0573913
vt 0.430632 0.0953941
vt 0.481935 0.219625
vt 0.468683 0.152589
usemtl Triangle-Face-1
f 1/1/1 2/2/1 3/3/1 4/4/1 
f 4/5/2 5/6/2 6/7/2 1/8/2 
f 6/7/2 5/6/2 7/9/2 
f 8/10/2 9/11/2 10/12/2 11/13/2 
f 11/13/2 10/12/2 7/9/2 5/6/2 
f 12/14/3 13/15/3 9/16/4 8/17/4 
f 13/15/3 12/14/3 14/18/5 15/19/5 
f 16/20/6 17/21/6 18/22/7 19/23/7 
f 19/23/7 18/22/7 15/19/5 14/18/5 
f 20/24/6 21/25/6 17/26/6 16/27/6 
f 21/25/6 20/24/6 22/28/6 23/29/6 
f 3/30/6 2/31/6 24/32/6 25/33/6 
f 25/33/6 24/32/6 23/29/6 22/28/6 
f 5/34/8 4/35/8 25/36/8 
f 11/37/8 5/34/8 22/38/8 
f 14/39/8 12/40/8 8/41/8 
f 20/42/8 8/41/8 11/37/8 
f 16/43/8 14/39/8 8/41/8 
f 8/41/8 20/42/8 16/43/8 
f 11/37/8 22/38/8 20/42/8 
f 22/38/8 5/34/8 25/36/8 
f 25/36/8 4/35/8 3/44/8 
f 19/45/8 14/39/8 16/43/8 
f 6/46/9 2/47/9 1/48/9 
f 7/49/9 24/50/9 6/46/9 
f 9/51/9 21/52/9 10/53/9 
f 23/54/9 7/49/9 10/53/9 
f 13/55/9 15/56/9 9/51/9 
f 17/57/9 15/56/9 18/58/9 
f 9/51/9 17/57/9 21/52/9 
f 21/52/9 23/54/9 10/53/9 
f 24/50/9 2/47/9 6/46/9 
f 23/54/9 24/50/9 7/49/9 
f 15/56/9 17/57/9 9/51/9 
s off
g _1
v 6.35133 95.7224 -237.069
v 6.35133 96.7224 -237.069
v 35.4708 96.7224 -207.95
v 35.4708 95.7224 -207.95
v 6.35133 95.7224 -232.435
v 6.35133 96.7224 -227.801
v 6.35133 95.7224 -227.801
v 6.35133 96.7224 -218.533
v 6.35133 96.7224 -223.167
v 6.35133 95.7224 -223.167
v 6.35133 95.7224 -218.533
v 7.16187 96.7224 -214.471
v 7.16187 95.7224 -214.471
v 9.45112 95.7224 -211.05
v 9.45112 96.7224 -211.05
v 16.9347 96.7224 -207.95
v 12.8965 96.7224 -208.751
v 12.8965 95.7224 -208.751
v 16.9347 95.7224 -207.95
v 21.5687 96.7224 -207.95
v 21.5687 95.7224 -207.95
v 26.2027 95.7224 -207.95
v 26.2027 96.7224 -207.95
v 30.8367 96.7224 -207.95
v 30.8367 95.7224 -207.95
vn 0.707107 0 -0.707107
vn -1 0 0
vn -0.923414 0 0.383806
vn -1 0 -1.95461e-07
vn -0.707107 0 0.707107
vn 0 0 1
vn -0.38156 0 0.924344
vn 0 1 0
vn 0 -1 0
vt 0.983399 0
vt 0.998535 0
vt 0.998535 0.682165
vt 0.983399 0.682165
vt 0 0.0219679
vt 0 0.0385686
vt 0.0769275 0.0385686
vt 0.153855 0.0219679
vt 0.153855 0.0385686
vt 0.30771 0.0219679
vt 0.230782 0.0219679
vt 0.230782 0.0385686
vt 0.30771 0.0385686
vt 0.0692039 0
vt 0 0
vt 0 0.0166006
vt 0.0692039 0.0166006
vt 0.137986 0.0166006
vt 0.137986 0
vt 0.275973 0
vt 0.20719 0
vt 0.20719 0.0166006
vt 0.275973 0.0166006
vt 0.981935 0.0769275
vt 0.981935 0
vt 0.966799 0
vt 0.966799 0.0769275
vt 0.966799 0.153855
vt 0.981935 0.153855
vt 0.981935 0.30771
vt 0.981935 0.230782
vt 0.966799 0.230782
vt 0.966799 0.30771
vt 0.636788 0
vt 0.965334 0.406472
vt 0.483399 0
vt 0.713482 0
vt 0.965334 0.329544
vt 0.914032 0.0514582
vt 0.790177 0
vt 0.857403 0.0134554
vt 0.965334 0.252617
vt 0.965334 0.17569
vt 0.965334 0.483399
vt 0.952082 0.108653
vt 0.0766944 0.0439359
vt 0 0.0439359
vt 0.481935 0.527335
vt 0.153389 0.0439359
vt 0.481935 0.450408
vt 0.306777 0.0439359
vt 0.230083 0.0439359
vt 0.481935 0.296553
vt 0.481935 0.37348
vt 0.374004 0.0573913
vt 0.430632 0.0953941
vt 0.481935 0.219625
vt 0.468683 0.152589
usemtl Triangle_Face-2
f 26/59/10 27/60/10 28/61/10 29/62/10 
f 27/63/11 26/64/11 30/65/11 31/66/11 
f 30/65/11 32/67/11 31/66/11 
f 33/68/11 34/69/11 35/70/11 36/71/11 
f 34/69/11 31/66/11 32/67/11 35/70/11 
f 37/72/12 33/73/13 36/74/13 38/75/12 
f 38/75/12 39/76/14 40/77/14 37/72/12 
f 41/78/15 42/79/16 43/80/16 44/81/15 
f 42/79/16 40/77/14 39/76/14 43/80/16 
f 45/82/15 41/83/15 44/84/15 46/85/15 
f 46/85/15 47/86/15 48/87/15 45/82/15 
f 28/88/15 49/89/15 50/90/15 29/91/15 
f 49/89/15 48/87/15 47/86/15 50/90/15 
f 31/92/17 49/93/17 27/94/17 
f 34/95/17 48/96/17 31/92/17 
f 40/97/17 33/98/17 37/99/17 
f 45/100/17 34/95/17 33/98/17 
f 41/101/17 33/98/17 40/97/17 
f 33/98/17 41/101/17 45/100/17 
f 34/95/17 45/100/17 48/96/17 
f 48/96/17 49/93/17 31/92/17 
f 49/93/17 28/102/17 27/94/17 
f 42/103/17 41/101/17 40/97/17 
f 30/104/18 26/105/18 29/106/18 
f 32/107/18 30/104/18 50/108/18 
f 36/109/18 35/110/18 46/111/18 
f 47/112/18 35/110/18 32/107/18 
f 38/113/18 36/109/18 39/114/18 
f 44/115/18 43/116/18 39/114/18 
f 36/109/18 46/111/18 44/115/18 
f 46/111/18 35/110/18 47/112/18 
f 50/108/18 30/104/18 29/106/18 
f 47/112/18 32/107/18 50/108/18 
f 39/114/18 36/109/18 44/115/18 
s off
g _2
v 44.45 89.8731 -201.1
v 44.45 0.973104 -201.1
v 44.45 0.973104 -202.1
v 44.45 89.8731 -202.1
v 7.14351 7.53572 -201.1
v 6.35001 11.5564 -201.1
v 6.35 11.5564 -202.1
v 7.1435 7.53572 -202.1
v 9.52813 3.99535 -202.1
v 9.52814 3.99535 -201.1
v 16.9333 0.973104 -201.1
v 13.0868 1.69685 -201.1
v 13.0868 1.69685 -202.1
v 16.9333 0.973104 -202.1
v 12.9126 89.0796 -201.1
v 16.9333 89.8731 -201.1
v 16.9333 89.8731 -202.1
v 12.9126 89.0796 -202.1
v 9.37224 86.695 -202.1
v 9.37225 86.695 -201.1
v 6.35001 79.2898 -201.1
v 7.07376 83.1363 -201.1
v 7.07375 83.1363 -202.1
v 6.35 79.2898 -202.1
v 6.35001 73.6453 -201.1
v 6.35 73.6453 -202.1
v 6.35001 68.0009 -201.1
v 6.35 68.0009 -202.1
v 6.35001 56.712 -201.1
v 6.35001 62.3564 -201.1
v 6.35 62.3564 -202.1
v 6.35 56.712 -202.1
v 6.35001 51.0675 -201.1
v 6.35 51.0675 -202.1
v 6.35001 45.4231 -201.1
v 6.35 45.4231 -202.1
v 6.35001 34.1342 -201.1
v 6.35001 39.7787 -201.1
v 6.35 39.7787 -202.1
v 6.35 34.1342 -202.1
v 6.35001 28.4898 -201.1
v 6.35 28.4898 -202.1
v 6.35001 17.2009 -201.1
v 6.35001 22.8453 -201.1
v 6.35 22.8453 -202.1
v 6.35 17.2009 -202.1
v 22.4367 0.973104 -201.1
v 22.4367 0.973104 -202.1
v 27.94 0.973104 -201.1
v 27.94 0.973104 -202.1
v 33.4433 0.973104 -202.1
v 33.4433 0.973104 -201.1
v 38.9467 0.973104 -201.1
v 38.9467 0.973104 -202.1
v 38.9467 89.8731 -201.1
v 38.9467 89.8731 -202.1
v 33.4433 89.8731 -201.1
v 33.4433 89.8731 -202.1
v 27.94 89.8731 -202.1
v 27.94 89.8731 -201.1
v 22.4367 89.8731 -201.1
v 22.4367 89.8731 -202.1
vn 1 0 -9.99456e-06
vn -0.925023 -0.37991 9.2452e-06
vn -1 0 9.99456e-06
vn -0.699704 -0.714433 6.99323e-06
vn 0 -1 0
vn -0.363449 -0.931614 3.63252e-06
vn -0.37991 0.925023 3.79704e-06
vn 0 1 0
vn -0.714433 0.699704 7.14045e-06
vn -0.931614 0.363449 9.31107e-06
vn 9.99456e-06 0 1
vn -9.99456e-06 0 -1
vt 0.0110011 0
vt 0.0110011 0.976533
vt 0.0205374 0.976533
vt 0.0205374 0
vt 0.0691893 0
vt 0.0220022 0
vt 0.0220022 0.0107297
vt 0.0691893 0.0107297
vt 0.114597 0.0107297
vt 0.114597 0
vt 0.204892 0
vt 0.159744 0
vt 0.159744 0.0107297
vt 0.204892 0.0107297
vt 0.0691893 0.0121945
vt 0.0220022 0.0121945
vt 0.0220022 0.0229241
vt 0.0691893 0.0229241
vt 0.114597 0.0229241
vt 0.114597 0.0121945
vt 0.204892 0.0121945
vt 0.159744 0.0121945
vt 0.159744 0.0229241
vt 0.204892 0.0229241
vt 0.00953626 0.0620951
vt 0.00953626 0
vt 0 0
vt 0 0.0620951
vt 0.00953626 0.12419
vt 0 0.12419
vt 0.00953626 0.24838
vt 0.00953626 0.186285
vt 0 0.186285
vt 0 0.24838
vt 0.00953626 0.310475
vt 0 0.310475
vt 0.00953626 0.372571
vt 0 0.372571
vt 0.00953626 0.496761
vt 0.00953626 0.434666
vt 0 0.434666
vt 0 0.496761
vt 0.00953626 0.558856
vt 0 0.558856
vt 0.00953626 0.683046
vt 0.00953626 0.620951
vt 0 0.620951
vt 0 0.683046
vt 0.00953626 0.745141
vt 0 0.745141
vt 0.0825449 0.0365835
vt 0.0220022 0.0365835
vt 0.0220022 0.0473131
vt 0.0825449 0.0473131
vt 0.143088 0.0365835
vt 0.143088 0.0473131
vt 0.20363 0.0473131
vt 0.20363 0.0365835
vt 0.264173 0.0365835
vt 0.264173 0.0473131
vt 0.324716 0.0365835
vt 0.324716 0.0473131
vt 0.0825449 0.024389
vt 0.0220022 0.024389
vt 0.0220022 0.0351186
vt 0.0825449 0.0351186
vt 0.143088 0.024389
vt 0.143088 0.0351186
vt 0.20363 0.0351186
vt 0.20363 0.024389
vt 0.264173 0.024389
vt 0.264173 0.0351186
vt 0.324716 0.024389
vt 0.324716 0.0351186
vt 0.138256 0.513388
vt 0.0569128 0.546636
vt 0.0960037 0.52135
vt 0.200258 0.513388
vt 0.26226 0.513388
vt 0.0307185 0.585584
vt 0.386265 0.513388
vt 0.0220022 0.629816
vt 0.324262 0.513388
vt 0.448267 0.513388
vt 0.0220022 0.690359
vt 0.510269 0.513388
vt 0.0220022 0.750902
vt 0.0220022 0.811444
vt 0.998535 0.750902
vt 0.998535 0.811444
vt 0.0220022 0.871987
vt 0.998535 0.871987
vt 0.0220022 0.93253
vt 0.998535 0.93253
vt 0.572271 0.513388
vt 0.998535 0.690359
vt 0.696275 0.513388
vt 0.998535 0.629816
vt 0.634273 0.513388
vt 0.820279 0.513388
vt 0.990585 0.5875
vt 0.758277 0.513388
vt 0.965337 0.548351
vt 0.882281 0.513388
vt 0.926447 0.522117
vt 0.138256 0.0487779
vt 0.0960037 0.05674
vt 0.0569128 0.082026
vt 0.200258 0.0487779
vt 0.26226 0.0487779
vt 0.0307185 0.120974
vt 0.386265 0.0487779
vt 0.324262 0.0487779
vt 0.0220022 0.165206
vt 0.448267 0.0487779
vt 0.0220022 0.225749
vt 0.510269 0.0487779
vt 0.0220022 0.286292
vt 0.0220022 0.346834
vt 0.998535 0.346834
vt 0.998535 0.286292
vt 0.0220022 0.407377
vt 0.998535 0.407377
vt 0.0220022 0.46792
vt 0.998535 0.46792
vt 0.572271 0.0487779
vt 0.998535 0.225749
vt 0.696275 0.0487779
vt 0.634273 0.0487779
vt 0.998535 0.165206
vt 0.820279 0.0487779
vt 0.758277 0.0487779
vt 0.990585 0.12289
vt 0.965337 0.0837409
vt 0.882281 0.0487779
vt 0.926447 0.0575073
usemtl Rectangle-Face-1
f 51/117/19 52/118/19 53/119/19 54/120/19 
f 55/121/20 56/122/21 57/123/21 58/124/20 
f 58/124/20 59/125/22 60/126/22 55/121/20 
f 61/127/23 62/128/24 63/129/24 64/130/23 
f 62/128/24 60/126/22 59/125/22 63/129/24 
f 65/131/25 66/132/26 67/133/26 68/134/25 
f 68/134/25 69/135/27 70/136/27 65/131/25 
f 71/137/21 72/138/28 73/139/28 74/140/21 
f 72/138/28 70/136/27 69/135/27 73/139/28 
f 75/141/21 71/142/21 74/143/21 76/144/21 
f 77/145/21 75/141/21 76/144/21 78/146/21 
f 79/147/21 80/148/21 81/149/21 82/150/21 
f 83/151/21 79/147/21 82/150/21 84/152/21 
f 80/148/21 77/145/21 78/146/21 81/149/21 
f 85/153/21 83/151/21 84/152/21 86/154/21 
f 87/155/21 88/156/21 89/157/21 90/158/21 
f 91/159/21 87/155/21 90/158/21 92/160/21 
f 93/161/21 94/162/21 95/163/21 96/164/21 
f 56/165/21 93/161/21 96/164/21 57/166/21 
f 94/162/21 91/159/21 92/160/21 95/163/21 
f 88/156/21 85/153/21 86/154/21 89/157/21 
f 97/167/23 61/168/23 64/169/23 98/170/23 
f 99/171/23 97/167/23 98/170/23 100/172/23 
f 100/172/23 101/173/23 102/174/23 99/171/23 
f 103/175/23 102/174/23 101/173/23 104/176/23 
f 52/177/23 103/175/23 104/176/23 53/178/23 
f 105/179/26 51/180/26 54/181/26 106/182/26 
f 107/183/26 105/179/26 106/182/26 108/184/26 
f 108/184/26 109/185/26 110/186/26 107/183/26 
f 111/187/26 110/186/26 109/185/26 112/188/26 
f 66/189/26 111/187/26 112/188/26 67/190/26 
f 71/191/29 70/192/29 72/193/29 
f 71/191/29 75/194/29 70/192/29 
f 77/195/29 65/196/29 75/194/29 
f 79/197/29 66/198/29 80/199/29 
f 80/199/29 66/198/29 77/195/29 
f 83/200/29 111/201/29 79/197/29 
f 66/198/29 65/196/29 77/195/29 
f 85/202/29 110/203/29 111/201/29 
f 66/198/29 79/197/29 111/201/29 
f 107/204/29 110/203/29 99/205/29 102/206/29 
f 105/207/29 107/204/29 102/206/29 103/208/29 
f 51/209/29 105/207/29 103/208/29 52/210/29 
f 70/192/29 75/194/29 65/196/29 
f 85/202/29 111/201/29 83/200/29 
f 88/211/29 97/212/29 85/202/29 
f 91/213/29 61/214/29 87/215/29 
f 87/215/29 97/212/29 88/211/29 
f 93/216/29 62/217/29 94/218/29 
f 60/219/29 93/216/29 56/220/29 
f 61/214/29 91/213/29 94/218/29 
f 60/219/29 56/220/29 55/221/29 
f 94/218/29 62/217/29 61/214/29 
f 61/214/29 97/212/29 87/215/29 
f 85/202/29 97/212/29 99/205/29 
f 93/216/29 60/219/29 62/217/29 
f 110/203/29 85/202/29 99/205/29 
f 74/222/30 73/223/30 69/224/30 
f 74/222/30 69/224/30 76/225/30 
f 78/226/30 76/225/30 68/227/30 
f 82/228/30 81/229/30 67/230/30 
f 81/229/30 78/226/30 67/230/30 
f 84/231/30 82/228/30 112/232/30 
f 67/230/30 78/226/30 68/227/30 
f 86/233/30 112/232/30 109/234/30 
f 67/230/30 112/232/30 82/228/30 
f 108/235/30 101/236/30 100/237/30 109/234/30 
f 106/238/30 104/239/30 101/236/30 108/235/30 
f 54/240/30 53/241/30 104/239/30 106/238/30 
f 69/224/30 68/227/30 76/225/30 
f 86/233/30 84/231/30 112/232/30 
f 89/242/30 86/233/30 98/243/30 
f 92/244/30 90/245/30 64/246/30 
f 90/245/30 89/242/30 98/243/30 
f 96/247/30 95/248/30 63/249/30 
f 59/250/30 57/251/30 96/247/30 
f 64/246/30 95/248/30 92/244/30 
f 59/250/30 58/252/30 57/251/30 
f 95/248/30 64/246/30 63/249/30 
f 64/246/30 90/245/30 98/243/30 
f 86/233/30 100/237/30 98/243/30 
f 96/247/30 63/249/30 59/250/30 
f 109/234/30 100/237/30 86/233/30 
s off
g _3
v -0.5 89.8731 -246.05
v 0.5 89.8731 -246.05
v 0.5 0.973104 -246.05
v -0.5 0.973104 -246.05
v -0.5 7.53572 -208.743
v 0.5 7.53572 -208.743
v 0.5 11.5564 -207.95
v -0.5 11.5564 -207.95
v -0.5 3.99535 -211.128
v 0.5 3.99535 -211.128
v -0.5 0.973104 -218.533
v 0.5 0.973104 -218.533
v 0.5 1.69685 -214.687
v -0.5 1.69685 -214.687
v -0.5 89.0796 -214.513
v 0.5 89.0796 -214.513
v 0.5 89.8731 -218.533
v -0.5 89.8731 -218.533
v -0.5 86.695 -210.972
v 0.5 86.695 -210.972
v -0.5 79.2898 -207.95
v 0.5 79.2898 -207.95
v 0.5 83.1363 -208.674
v -0.5 83.1363 -208.674
v -0.5 73.6453 -207.95
v 0.5 73.6453 -207.95
v -0.5 68.0009 -207.95
v 0.5 68.0009 -207.95
v -0.5 56.712 -207.95
v 0.5 56.712 -207.95
v 0.5 62.3564 -207.95
v -0.5 62.3564 -207.95
v -0.5 51.0675 -207.95
v 0.5 51.0675 -207.95
v -0.5 45.4231 -207.95
v 0.5 45.4231 -207.95
v -0.5 34.1342 -207.95
v 0.5 34.1342 -207.95
v 0.5 39.7787 -207.95
v -0.5 39.7787 -207.95
v -0.5 28.4898 -207.95
v 0.5 28.4898 -207.95
v -0.5 17.2009 -207.95
v 0.5 17.2009 -207.95
v 0.5 22.8453 -207.95
v -0.5 22.8453 -207.95
v -0.5 0.973104 -224.037
v 0.5 0.973104 -224.037
v -0.5 0.973104 -229.54
v 0.5 0.973104 -229.54
v -0.5 0.973104 -235.043
v 0.5 0.973104 -235.043
v -0.5 0.973104 -240.547
v 0.5 0.973104 -240.547
v -0.5 89.8731 -240.547
v 0.5 89.8731 -240.547
v -0.5 89.8731 -235.043
v 0.5 89.8731 -235.043
v -0.5 89.8731 -229.54
v 0.5 89.8731 -229.54
v -0.5 89.8731 -224.037
v 0.5 89.8731 -224.037
vn 0 0 -1
vn 0 -0.37991 0.925023
vn 0 0 1
vn 0 -0.714433 0.699704
vn 0 -1 0
vn 0 -0.931614 0.363449
vn 0 0.925023 0.37991
vn 0 1 0
vn 0 0.699704 0.714433
vn 0 0.363449 0.931614
vn -1 0 0
vn 1 0 0
vt 0.0110011 0
vt 0.0205374 0
vt 0.0205374 0.976533
vt 0.0110011 0.976533
vt 0.0691893 0
vt 0.0691893 0.0107297
vt 0.0220022 0.0107297
vt 0.0220022 0
vt 0.114597 0
vt 0.114597 0.0107297
vt 0.204892 0
vt 0.204892 0.0107297
vt 0.159744 0.0107297
vt 0.159744 0
vt 0.0691893 0.0121945
vt 0.0691893 0.0229241
vt 0.0220022 0.0229241
vt 0.0220022 0.0121945
vt 0.114597 0.0121945
vt 0.114597 0.0229241
vt 0.204892 0.0121945
vt 0.204892 0.0229241
vt 0.159744 0.0229241
vt 0.159744 0.0121945
vt 0.00953626 0.0620951
vt 0 0.0620951
vt 0 0
vt 0.00953626 0
vt 0.00953626 0.12419
vt 0 0.12419
vt 0.00953626 0.24838
vt 0 0.24838
vt 0 0.186285
vt 0.00953626 0.186285
vt 0.00953626 0.310475
vt 0 0.310475
vt 0.00953626 0.372571
vt 0 0.372571
vt 0.00953626 0.496761
vt 0 0.496761
vt 0 0.434666
vt 0.00953626 0.434666
vt 0.00953626 0.558856
vt 0 0.558856
vt 0.00953626 0.683046
vt 0 0.683046
vt 0 0.620951
vt 0.00953626 0.620951
vt 0.00953626 0.745141
vt 0 0.745141
vt 0.0825449 0.0365835
vt 0.0825449 0.0473131
vt 0.0220022 0.0473131
vt 0.0220022 0.0365835
vt 0.143088 0.0365835
vt 0.143088 0.0473131
vt 0.20363 0.0365835
vt 0.20363 0.0473131
vt 0.264173 0.0365835
vt 0.264173 0.0473131
vt 0.324716 0.0365835
vt 0.324716 0.0473131
vt 0.0825449 0.024389
vt 0.0825449 0.0351186
vt 0.0220022 0.0351186
vt 0.0220022 0.024389
vt 0.143088 0.024389
vt 0.143088 0.0351186
vt 0.20363 0.024389
vt 0.20363 0.0351186
vt 0.264173 0.024389
vt 0.264173 0.0351186
vt 0.324716 0.024389
vt 0.324716 0.0351186
vt 0.138256 0.513388
vt 0.0960037 0.52135
vt 0.0569128 0.546636
vt 0.200258 0.513388
vt 0.26226 0.513388
vt 0.0307185 0.585584
vt 0.386265 0.513388
vt 0.324262 0.513388
vt 0.0220022 0.629816
vt 0.448267 0.513388
vt 0.0220022 0.690359
vt 0.510269 0.513388
vt 0.0220022 0.750902
vt 0.0220022 0.811444
vt 0.998535 0.811444
vt 0.998535 0.750902
vt 0.0220022 0.871987
vt 0.998535 0.871987
vt 0.0220022 0.93253
vt 0.998535 0.93253
vt 0.572271 0.513388
vt 0.998535 0.690359
vt 0.696275 0.513388
vt 0.634273 0.513388
vt 0.998535 0.629816
vt 0.820279 0.513388
vt 0.758277 0.513388
vt 0.990585 0.5875
vt 0.965337 0.548351
vt 0.882281 0.513388
vt 0.926447 0.522117
vt 0.138256 0.0487779
vt 0.0569128 0.082026
vt 0.0960037 0.05674
vt 0.200258 0.0487779
vt 0.26226 0.0487779
vt 0.0307185 0.120974
vt 0.386265 0.0487779
vt 0.0220022 0.165206
vt 0.324262 0.0487779
vt 0.448267 0.0487779
vt 0.0220022 0.225749
vt 0.510269 0.0487779
vt 0.0220022 0.286292
vt 0.0220022 0.346834
vt 0.998535 0.286292
vt 0.998535 0.346834
vt 0.0220022 0.407377
vt 0.998535 0.407377
vt 0.0220022 0.46792
vt 0.998535 0.46792
vt 0.572271 0.0487779
vt 0.998535 0.225749
vt 0.696275 0.0487779
vt 0.998535 0.165206
vt 0.634273 0.0487779
vt 0.820279 0.0487779
vt 0.990585 0.12289
vt 0.758277 0.0487779
vt 0.965337 0.0837409
vt 0.882281 0.0487779
vt 0.926447 0.0575073
usemtl Rectangle-Face-2
f 113/253/31 114/254/31 115/255/31 116/256/31 
f 117/257/32 118/258/32 119/259/33 120/260/33 
f 118/258/32 117/257/32 121/261/34 122/262/34 
f 123/263/35 124/264/35 125/265/36 126/266/36 
f 126/266/36 125/265/36 122/262/34 121/261/34 
f 127/267/37 128/268/37 129/269/38 130/270/38 
f 128/268/37 127/267/37 131/271/39 132/272/39 
f 133/273/33 134/274/33 135/275/40 136/276/40 
f 136/276/40 135/275/40 132/272/39 131/271/39 
f 137/277/33 138/278/33 134/279/33 133/280/33 
f 139/281/33 140/282/33 138/278/33 137/277/33 
f 141/283/33 142/284/33 143/285/33 144/286/33 
f 145/287/33 146/288/33 142/284/33 141/283/33 
f 144/286/33 143/285/33 140/282/33 139/281/33 
f 147/289/33 148/290/33 146/288/33 145/287/33 
f 149/291/33 150/292/33 151/293/33 152/294/33 
f 153/295/33 154/296/33 150/292/33 149/291/33 
f 155/297/33 156/298/33 157/299/33 158/300/33 
f 120/301/33 119/302/33 156/298/33 155/297/33 
f 158/300/33 157/299/33 154/296/33 153/295/33 
f 152/294/33 151/293/33 148/290/33 147/289/33 
f 159/303/35 160/304/35 124/305/35 123/306/35 
f 161/307/35 162/308/35 160/304/35 159/303/35 
f 162/308/35 161/307/35 163/309/35 164/310/35 
f 165/311/35 166/312/35 164/310/35 163/309/35 
f 116/313/35 115/314/35 166/312/35 165/311/35 
f 167/315/38 168/316/38 114/317/38 113/318/38 
f 169/319/38 170/320/38 168/316/38 167/315/38 
f 170/320/38 169/319/38 171/321/38 172/322/38 
f 173/323/38 174/324/38 172/322/38 171/321/38 
f 130/325/38 129/326/38 174/324/38 173/323/38 
f 133/327/41 136/328/41 131/329/41 
f 133/327/41 131/329/41 137/330/41 
f 139/331/41 137/330/41 127/332/41 
f 141/333/41 144/334/41 130/335/41 
f 144/334/41 139/331/41 130/335/41 
f 145/336/41 141/333/41 173/337/41 
f 130/335/41 139/331/41 127/332/41 
f 147/338/41 173/337/41 171/339/41 
f 130/335/41 173/337/41 141/333/41 
f 169/340/41 163/341/41 161/342/41 171/339/41 
f 167/343/41 165/344/41 163/341/41 169/340/41 
f 113/345/41 116/346/41 165/344/41 167/343/41 
f 131/329/41 127/332/41 137/330/41 
f 147/338/41 145/336/41 173/337/41 
f 152/347/41 147/338/41 159/348/41 
f 153/349/41 149/350/41 123/351/41 
f 149/350/41 152/347/41 159/348/41 
f 155/352/41 158/353/41 126/354/41 
f 121/355/41 120/356/41 155/352/41 
f 123/351/41 158/353/41 153/349/41 
f 121/355/41 117/357/41 120/356/41 
f 158/353/41 123/351/41 126/354/41 
f 123/351/41 149/350/41 159/348/41 
f 147/338/41 161/342/41 159/348/41 
f 155/352/41 126/354/41 121/355/41 
f 171/339/41 161/342/41 147/338/41 
f 134/358/42 132/359/42 135/360/42 
f 134/358/42 138/361/42 132/359/42 
f 140/362/42 128/363/42 138/361/42 
f 142/364/42 129/365/42 143/366/42 
f 143/366/42 129/365/42 140/362/42 
f 146/367/42 174/368/42 142/364/42 
f 129/365/42 128/363/42 140/362/42 
f 148/369/42 172/370/42 174/368/42 
f 129/365/42 142/364/42 174/368/42 
f 170/371/42 172/370/42 162/372/42 164/373/42 
f 168/374/42 170/371/42 164/373/42 166/375/42 
f 114/376/42 168/374/42 166/375/42 115/377/42 
f 132/359/42 138/361/42 128/363/42 
f 148/369/42 174/368/42 146/367/42 
f 151/378/42 160/379/42 148/369/42 
f 154/380/42 124/381/42 150/382/42 
f 150/382/42 160/379/42 151/378/42 
f 156/383/42 125/384/42 157/385/42 
f 122/386/42 156/383/42 119/387/42 
f 124/381/42 154/380/42 157/385/42 
f 122/386/42 119/387/42 118/388/42 
f 157/385/42 125/384/42 124/381/42 
f 124/381/42 160/379/42 150/382/42 
f 148/369/42 160/379/42 162/372/42 
f 156/383/42 122/386/42 125/384/42 
f 172/370/42 148/369/42 162/372/42 
s off
g _4
v 0 96.2231 -252.4
v 50.8 96.2231 -201.6
v 50.8 -5.3769 -201.6
v 0 -5.3769 -252.4
v 0 96.2231 -201.6
v 0 -5.3769 -201.6
vn 0.707107 0 -0.707107
vn 0 0 1
vn 0 -1 0
vn -1 0 0
vn 0 1 0
vt 0 0.412749
vt 0 0
vt 0.585786 0
vt 0.585786 0.412749
vt 0.414214 0.998535
vt 0.414214 0.414214
vt 0.705642 0.414214
vt 0.705642 0.998535
vt 0 0.705642
vt 0.412749 0.414214
vt 0 0.414214
vt 0.707107 0.585786
vt 0.998535 0.585786
vt 0.998535 0
vt 0.707107 0
vt 0 0.707107
vt 0.412749 0.707107
vt 0.412749 0.998535
usemtl Custom
f 175/389/43 176/390/43 177/391/43 178/392/43 
f 177/393/44 176/394/44 179/395/44 180/396/44 
f 180/397/45 178/398/45 177/399/45 
f 179/400/46 175/401/46 178/402/46 180/403/46 
f 176/404/47 175/405/47 179/406/47 
s off
