# Apple ModelIO OBJ File: Asteroid_7-1
mtllib Asteroid_7-1.mtl
g 
v 6.35133 -13.6252 -35.4694
v 35.4708 -13.6252 -6.35
v 35.4708 -14.6252 -6.35
v 6.35133 -14.6252 -35.4694
v 6.35133 -14.6252 -26.2014
v 6.35133 -13.6252 -30.8354
v 6.35133 -13.6252 -26.2014
v 6.35133 -14.6252 -16.9333
v 6.35133 -13.6252 -16.9333
v 6.35133 -13.6252 -21.5674
v 6.35133 -14.6252 -21.5674
v 7.16187 -14.6252 -12.8714
v 7.16187 -13.6252 -12.8714
v 9.45112 -14.6252 -9.44979
v 9.45112 -13.6252 -9.44979
v 16.9347 -14.6252 -6.35
v 16.9347 -13.6252 -6.35
v 12.8965 -13.6252 -7.15069
v 12.8965 -14.6252 -7.15069
v 21.5687 -14.6252 -6.35
v 21.5687 -13.6252 -6.35
v 26.2027 -14.6252 -6.35
v 26.2027 -13.6252 -6.35
v 30.8367 -13.6252 -6.35
v 30.8367 -14.6252 -6.35
vn 0.707107 0 -0.707107
vn -1 0 0
vn -0.923414 0 0.383806
vn -1 0 -1.95461e-07
vn -0.707107 0 0.707107
vn 0 0 1
vn -0.38156 0 0.924344
vn 0 -1 0
vn 0 1 0
vt 0.983399 0
vt 0.983399 0.682165
vt 0.998535 0.682165
vt 0.998535 0
vt 0 0.0219679
vt 0.153855 0.0219679
vt 0.0769275 0.0385686
vt 0 0.0385686
vt 0.153855 0.0385686
vt 0.30771 0.0219679
vt 0.30771 0.0385686
vt 0.230782 0.0385686
vt 0.230782 0.0219679
vt 0.0692039 0
vt 0.0692039 0.0166006
vt 0 0.0166006
vt 0 0
vt 0.137986 0
vt 0.137986 0.0166006
vt 0.275973 0
vt 0.275973 0.0166006
vt 0.20719 0.0166006
vt 0.20719 0
vt 0.981935 0.0769275
vt 0.966799 0.0769275
vt 0.966799 0
vt 0.981935 0
vt 0.981935 0.153855
vt 0.966799 0.153855
vt 0.981935 0.30771
vt 0.966799 0.30771
vt 0.966799 0.230782
vt 0.981935 0.230782
vt 0.636788 0
vt 0.483399 0
vt 0.965334 0.406472
vt 0.713482 0
vt 0.965334 0.329544
vt 0.914032 0.0514582
vt 0.857403 0.0134554
vt 0.790177 0
vt 0.965334 0.252617
vt 0.965334 0.17569
vt 0.965334 0.483399
vt 0.952082 0.108653
vt 0.0766944 0.0439359
vt 0.481935 0.527335
vt 0 0.0439359
vt 0.153389 0.0439359
vt 0.481935 0.450408
vt 0.306777 0.0439359
vt 0.481935 0.296553
vt 0.230083 0.0439359
vt 0.481935 0.37348
vt 0.374004 0.0573913
vt 0.430632 0.0953941
vt 0.481935 0.219625
vt 0.468683 0.152589
usemtl Triangle-Face-1
f 1/1/1 2/2/1 3/3/1 4/4/1 
f 4/5/2 5/6/2 6/7/2 1/8/2 
f 6/7/2 5/6/2 7/9/2 
f 8/10/2 9/11/2 10/12/2 11/13/2 
f 11/13/2 10/12/2 7/9/2 5/6/2 
f 12/14/3 13/15/3 9/16/4 8/17/4 
f 13/15/3 12/14/3 14/18/5 15/19/5 
f 16/20/6 17/21/6 18/22/7 19/23/7 
f 19/23/7 18/22/7 15/19/5 14/18/5 
f 20/24/6 21/25/6 17/26/6 16/27/6 
f 21/25/6 20/24/6 22/28/6 23/29/6 
f 3/30/6 2/31/6 24/32/6 25/33/6 
f 25/33/6 24/32/6 23/29/6 22/28/6 
f 5/34/8 4/35/8 25/36/8 
f 11/37/8 5/34/8 22/38/8 
f 14/39/8 12/40/8 8/41/8 
f 20/42/8 8/41/8 11/37/8 
f 16/43/8 14/39/8 8/41/8 
f 8/41/8 20/42/8 16/43/8 
f 11/37/8 22/38/8 20/42/8 
f 22/38/8 5/34/8 25/36/8 
f 25/36/8 4/35/8 3/44/8 
f 19/45/8 14/39/8 16/43/8 
f 6/46/9 2/47/9 1/48/9 
f 7/49/9 24/50/9 6/46/9 
f 9/51/9 21/52/9 10/53/9 
f 23/54/9 7/49/9 10/53/9 
f 13/55/9 15/56/9 9/51/9 
f 17/57/9 15/56/9 18/58/9 
f 9/51/9 17/57/9 21/52/9 
f 21/52/9 23/54/9 10/53/9 
f 24/50/9 2/47/9 6/46/9 
f 23/54/9 24/50/9 7/49/9 
f 15/56/9 17/57/9 9/51/9 
s off
g _1
v 31.8295 -4.13427 -0.375697
v 31.8295 -4.13427 -0.250697
v 33.6495 -5.95423 -0.250697
v 33.6495 -5.95423 -0.375697
v 28.1896 -0.49434 -0.250697
v 28.1896 -0.49434 -0.00069658
v 31.8295 -4.13427 -0.00069658
v 28.1896 -0.49434 0.249303
v 31.8295 -4.13427 0.249303
v 31.8295 -4.13427 0.374303
v 33.6495 -5.95423 0.374303
v 33.6495 -5.95423 0.249303
v 8.16996 19.5253 -0.375697
v 8.16996 19.5253 -0.250697
v 9.98993 17.7053 -0.250697
v 9.98993 17.7053 -0.375697
v 9.98993 17.7053 -0.00069658
v 13.6299 14.0654 -0.00069658
v 13.6299 14.0654 -0.250697
v 9.98993 17.7053 0.249303
v 13.6299 14.0654 0.249303
v 8.16996 19.5253 0.249303
v 8.16996 19.5253 0.374303
v 9.98993 17.7053 0.374303
v 35.4694 -7.7742 0.499303
v 35.4694 -7.7742 -0.500697
v 6.35 21.3452 0.499303
v 6.35 21.3452 -0.500697
v 26.2014 -7.7742 0.499303
v 30.8354 -7.7742 -0.500697
v 26.2014 -7.7742 -0.500697
v 16.9333 -7.7742 0.499303
v 16.9333 -7.7742 -0.500697
v 21.5674 -7.7742 -0.500697
v 21.5674 -7.7742 0.499303
v 12.8714 -6.96366 0.499303
v 12.8714 -6.96366 -0.500697
v 9.44979 -4.67441 0.499303
v 9.44979 -4.67441 -0.500697
v 6.35 2.80914 0.499303
v 6.35 2.80914 -0.500697
v 7.15069 -1.22904 -0.500697
v 7.15069 -1.22904 0.499303
v 6.35 7.44316 0.499303
v 6.35 7.44316 -0.500697
v 6.35 12.0772 0.499303
v 6.35 12.0772 -0.500697
v 6.35 16.7112 -0.500697
v 6.35 16.7112 0.499303
vn 0.707107 0.707107 0
vn 0 -1 0
vn -0.383806 -0.923414 0
vn -0.707107 -0.707107 0
vn -1 0 0
vn -0.924344 -0.38156 0
vn 0 0 1
vn 0 0 -1
vt 0.985291 0.0852706
vt 0.987183 0.0852706
vt 0.987183 0.0426353
vt 0.985291 0.0426353
vt 0.987183 0.170541
vt 0.990967 0.170541
vt 0.990967 0.0852706
vt 0.994751 0.170541
vt 0.994751 0.0852706
vt 0.996643 0.0852706
vt 0.996643 0.0426353
vt 0.994751 0.0426353
vt 0.985291 0.63953
vt 0.987183 0.63953
vt 0.987183 0.596895
vt 0.985291 0.596895
vt 0.990967 0.596895
vt 0.990967 0.511624
vt 0.987183 0.511624
vt 0.994751 0.596895
vt 0.994751 0.511624
vt 0.994751 0.63953
vt 0.996643 0.63953
vt 0.996643 0.596895
vt 0.998535 0
vt 0.983399 0
vt 0.998535 0.682165
vt 0.983399 0.682165
vt 0 0.0219679
vt 0.153855 0.0219679
vt 0.0769275 0.0385686
vt 0 0.0385686
vt 0.153855 0.0385686
vt 0.30771 0.0219679
vt 0.30771 0.0385686
vt 0.230782 0.0385686
vt 0.230782 0.0219679
vt 0.0692039 0
vt 0.0692039 0.0166006
vt 0 0.0166006
vt 0 0
vt 0.137986 0
vt 0.137986 0.0166006
vt 0.275973 0
vt 0.275973 0.0166006
vt 0.20719 0.0166006
vt 0.20719 0
vt 0.981935 0.0769275
vt 0.966799 0.0769275
vt 0.966799 0
vt 0.981935 0
vt 0.981935 0.153855
vt 0.966799 0.153855
vt 0.981935 0.30771
vt 0.966799 0.30771
vt 0.966799 0.230782
vt 0.981935 0.230782
vt 0.636788 0
vt 0.483399 0
vt 0.965334 0.406472
vt 0.713482 0
vt 0.965334 0.329544
vt 0.914032 0.0514582
vt 0.857403 0.0134554
vt 0.790177 0
vt 0.965334 0.252617
vt 0.965334 0.17569
vt 0.965334 0.483399
vt 0.952082 0.108653
vt 0.0766944 0.0439359
vt 0.481935 0.527335
vt 0 0.0439359
vt 0.153389 0.0439359
vt 0.481935 0.450408
vt 0.306777 0.0439359
vt 0.481935 0.296553
vt 0.230083 0.0439359
vt 0.481935 0.37348
vt 0.374004 0.0573913
vt 0.430632 0.0953941
vt 0.481935 0.219625
vt 0.468683 0.152589
usemtl Triangle-Face-2
f 26/59/10 27/60/10 28/61/10 29/62/10 
f 30/63/10 31/64/10 32/65/10 27/60/10 
f 31/64/10 33/66/10 34/67/10 32/65/10 
f 34/67/10 35/68/10 36/69/10 37/70/10 
f 38/71/10 39/72/10 40/73/10 41/74/10 
f 40/73/10 42/75/10 43/76/10 44/77/10 
f 42/75/10 45/78/10 46/79/10 43/76/10 
f 47/80/10 48/81/10 49/82/10 45/78/10 
f 37/70/10 36/69/10 50/83/10 
f 35/68/10 50/83/10 36/69/10 
f 37/70/10 50/83/10 51/84/10 28/61/10 
f 33/66/10 35/68/10 34/67/10 
f 35/68/10 33/66/10 46/79/10 49/82/10 
f 37/70/10 32/65/10 34/67/10 
f 50/83/10 35/68/10 49/82/10 52/85/10 
f 28/61/10 32/65/10 37/70/10 
f 29/62/10 28/61/10 51/84/10 
f 26/59/10 29/62/10 51/84/10 
f 32/65/10 28/61/10 27/60/10 
f 30/63/10 26/59/10 41/74/10 44/77/10 
f 27/60/10 26/59/10 30/63/10 
f 30/63/10 44/77/10 43/76/10 31/64/10 
f 26/59/10 51/84/10 53/86/10 41/74/10 
f 31/64/10 43/76/10 46/79/10 33/66/10 
f 49/82/10 46/79/10 45/78/10 
f 47/80/10 52/85/10 48/81/10 
f 49/82/10 48/81/10 52/85/10 
f 52/85/10 47/80/10 39/72/10 53/86/10 
f 47/80/10 45/78/10 42/75/10 
f 39/72/10 42/75/10 40/73/10 
f 41/74/10 40/73/10 44/77/10 
f 41/74/10 53/86/10 38/71/10 
f 39/72/10 38/71/10 53/86/10 
f 39/72/10 47/80/10 42/75/10 
f 50/87/11 54/88/11 55/89/11 51/90/11 
f 55/89/11 54/88/11 56/91/11 
f 57/92/11 58/93/11 59/94/11 60/95/11 
f 60/95/11 59/94/11 56/91/11 54/88/11 
f 61/96/12 62/97/12 58/98/11 57/99/11 
f 62/97/12 61/96/12 63/100/13 64/101/13 
f 65/102/14 66/103/14 67/104/15 68/105/15 
f 68/105/15 67/104/15 64/101/13 63/100/13 
f 69/106/14 70/107/14 66/108/14 65/109/14 
f 70/107/14 69/106/14 71/110/14 72/111/14 
f 52/112/14 53/113/14 73/114/14 74/115/14 
f 74/115/14 73/114/14 72/111/14 71/110/14 
f 54/116/16 50/117/16 74/118/16 
f 60/119/16 54/116/16 71/120/16 
f 63/121/16 61/122/16 57/123/16 
f 69/124/16 57/123/16 60/119/16 
f 65/125/16 63/121/16 57/123/16 
f 57/123/16 69/124/16 65/125/16 
f 60/119/16 71/120/16 69/124/16 
f 71/120/16 54/116/16 74/118/16 
f 74/118/16 50/117/16 52/126/16 
f 68/127/16 63/121/16 65/125/16 
f 55/128/17 53/129/17 51/130/17 
f 56/131/17 73/132/17 55/128/17 
f 58/133/17 70/134/17 59/135/17 
f 72/136/17 56/131/17 59/135/17 
f 62/137/17 64/138/17 58/133/17 
f 66/139/17 64/138/17 67/140/17 
f 58/133/17 66/139/17 70/134/17 
f 70/134/17 72/136/17 59/135/17 
f 73/132/17 53/129/17 55/128/17 
f 72/136/17 73/132/17 56/131/17 
f 64/138/17 66/139/17 58/133/17 
s off
g _2
v 0.375697 -4.13427 -31.8295
v 0.375697 -5.95423 -33.6495
v 0.250697 -5.95423 -33.6495
v 0.250697 -4.13427 -31.8295
v 0.250697 -0.49434 -28.1896
v 0.00069658 -4.13427 -31.8295
v 0.00069658 -0.49434 -28.1896
v -0.249303 -4.13427 -31.8295
v -0.249303 -0.49434 -28.1896
v -0.249303 -5.95423 -33.6495
v -0.374303 -5.95423 -33.6495
v -0.374303 -4.13427 -31.8295
v 0.375697 19.5253 -8.16996
v 0.375697 17.7053 -9.98993
v 0.250697 17.7053 -9.98993
v 0.250697 19.5253 -8.16996
v 0.250697 14.0654 -13.6299
v 0.00069658 14.0654 -13.6299
v 0.00069658 17.7053 -9.98993
v -0.249303 14.0654 -13.6299
v -0.249303 17.7053 -9.98993
v -0.249303 19.5253 -8.16996
v -0.374303 17.7053 -9.98993
v -0.374303 19.5253 -8.16996
v -0.499303 -7.7742 -35.4694
v 0.500697 -7.7742 -35.4694
v -0.499303 21.3452 -6.35
v 0.500697 21.3452 -6.35
v 0.500697 -7.7742 -30.8354
v -0.499303 -7.7742 -26.2014
v 0.500697 -7.7742 -26.2014
v -0.499303 -7.7742 -16.9333
v -0.499303 -7.7742 -21.5674
v 0.500697 -7.7742 -21.5674
v 0.500697 -7.7742 -16.9333
v -0.499303 -6.96366 -12.8714
v 0.500697 -6.96366 -12.8714
v 0.500697 -4.67441 -9.44979
v -0.499303 -4.67441 -9.44979
v -0.499303 2.80914 -6.35
v -0.499303 -1.22904 -7.15069
v 0.500697 -1.22904 -7.15069
v 0.500697 2.80914 -6.35
v -0.499303 7.44316 -6.35
v 0.500697 7.44316 -6.35
v 0.500697 12.0772 -6.35
v -0.499303 12.0772 -6.35
v -0.499303 16.7112 -6.35
v 0.500697 16.7112 -6.35
vn 0 0.707107 -0.707107
vn 0 -1 0
vn 0 -0.923414 0.383806
vn 0 -1 -1.95461e-07
vn 0 -0.707107 0.707107
vn 0 0 1
vn 0 -0.38156 0.924344
vn -1 0 0
vn 1 0 0
vt 0.985291 0.0852706
vt 0.985291 0.0426353
vt 0.987183 0.0426353
vt 0.987183 0.0852706
vt 0.987183 0.170541
vt 0.990967 0.0852706
vt 0.990967 0.170541
vt 0.994751 0.0852706
vt 0.994751 0.170541
vt 0.994751 0.0426353
vt 0.996643 0.0426353
vt 0.996643 0.0852706
vt 0.985291 0.63953
vt 0.985291 0.596895
vt 0.987183 0.596895
vt 0.987183 0.63953
vt 0.987183 0.511624
vt 0.990967 0.511624
vt 0.990967 0.596895
vt 0.994751 0.511624
vt 0.994751 0.596895
vt 0.994751 0.63953
vt 0.996643 0.596895
vt 0.996643 0.63953
vt 0.998535 0
vt 0.983399 0
vt 0.998535 0.682165
vt 0.983399 0.682165
vt 0 0.0219679
vt 0 0.0385686
vt 0.0769275 0.0385686
vt 0.153855 0.0219679
vt 0.153855 0.0385686
vt 0.30771 0.0219679
vt 0.230782 0.0219679
vt 0.230782 0.0385686
vt 0.30771 0.0385686
vt 0.0692039 0
vt 0 0
vt 0 0.0166006
vt 0.0692039 0.0166006
vt 0.137986 0.0166006
vt 0.137986 0
vt 0.275973 0
vt 0.20719 0
vt 0.20719 0.0166006
vt 0.275973 0.0166006
vt 0.981935 0.0769275
vt 0.981935 0
vt 0.966799 0
vt 0.966799 0.0769275
vt 0.966799 0.153855
vt 0.981935 0.153855
vt 0.981935 0.30771
vt 0.981935 0.230782
vt 0.966799 0.230782
vt 0.966799 0.30771
vt 0.636788 0
vt 0.965334 0.406472
vt 0.483399 0
vt 0.713482 0
vt 0.965334 0.329544
vt 0.914032 0.0514582
vt 0.790177 0
vt 0.857403 0.0134554
vt 0.965334 0.252617
vt 0.965334 0.17569
vt 0.965334 0.483399
vt 0.952082 0.108653
vt 0.0766944 0.0439359
vt 0 0.0439359
vt 0.481935 0.527335
vt 0.153389 0.0439359
vt 0.481935 0.450408
vt 0.306777 0.0439359
vt 0.230083 0.0439359
vt 0.481935 0.296553
vt 0.481935 0.37348
vt 0.374004 0.0573913
vt 0.430632 0.0953941
vt 0.481935 0.219625
vt 0.468683 0.152589
usemtl Triangle-Face-3
f 75/141/18 76/142/18 77/143/18 78/144/18 
f 79/145/18 78/144/18 80/146/18 81/147/18 
f 81/147/18 80/146/18 82/148/18 83/149/18 
f 82/148/18 84/150/18 85/151/18 86/152/18 
f 87/153/18 88/154/18 89/155/18 90/156/18 
f 89/155/18 91/157/18 92/158/18 93/159/18 
f 93/159/18 92/158/18 94/160/18 95/161/18 
f 96/162/18 95/161/18 97/163/18 98/164/18 
f 84/150/18 99/165/18 85/151/18 
f 86/152/18 85/151/18 99/165/18 
f 84/150/18 77/143/18 100/166/18 99/165/18 
f 83/149/18 82/148/18 86/152/18 
f 86/152/18 97/163/18 94/160/18 83/149/18 
f 84/150/18 82/148/18 80/146/18 
f 99/165/18 101/167/18 97/163/18 86/152/18 
f 77/143/18 84/150/18 80/146/18 
f 76/142/18 100/166/18 77/143/18 
f 75/141/18 100/166/18 76/142/18 
f 80/146/18 78/144/18 77/143/18 
f 79/145/18 91/157/18 88/154/18 75/141/18 
f 78/144/18 79/145/18 75/141/18 
f 79/145/18 81/147/18 92/158/18 91/157/18 
f 75/141/18 88/154/18 102/168/18 100/166/18 
f 81/147/18 83/149/18 94/160/18 92/158/18 
f 97/163/18 95/161/18 94/160/18 
f 96/162/18 98/164/18 101/167/18 
f 97/163/18 101/167/18 98/164/18 
f 101/167/18 102/168/18 90/156/18 96/162/18 
f 96/162/18 93/159/18 95/161/18 
f 90/156/18 89/155/18 93/159/18 
f 88/154/18 91/157/18 89/155/18 
f 88/154/18 87/153/18 102/168/18 
f 90/156/18 102/168/18 87/153/18 
f 90/156/18 93/159/18 96/162/18 
f 99/169/19 100/170/19 103/171/19 104/172/19 
f 103/171/19 105/173/19 104/172/19 
f 106/174/19 107/175/19 108/176/19 109/177/19 
f 107/175/19 104/172/19 105/173/19 108/176/19 
f 110/178/20 106/179/21 109/180/21 111/181/20 
f 111/181/20 112/182/22 113/183/22 110/178/20 
f 114/184/23 115/185/24 116/186/24 117/187/23 
f 115/185/24 113/183/22 112/182/22 116/186/24 
f 118/188/23 114/189/23 117/190/23 119/191/23 
f 119/191/23 120/192/23 121/193/23 118/188/23 
f 101/194/23 122/195/23 123/196/23 102/197/23 
f 122/195/23 121/193/23 120/192/23 123/196/23 
f 104/198/25 122/199/25 99/200/25 
f 107/201/25 121/202/25 104/198/25 
f 113/203/25 106/204/25 110/205/25 
f 118/206/25 107/201/25 106/204/25 
f 114/207/25 106/204/25 113/203/25 
f 106/204/25 114/207/25 118/206/25 
f 107/201/25 118/206/25 121/202/25 
f 121/202/25 122/199/25 104/198/25 
f 122/199/25 101/208/25 99/200/25 
f 115/209/25 114/207/25 113/203/25 
f 103/210/26 100/211/26 102/212/26 
f 105/213/26 103/210/26 123/214/26 
f 109/215/26 108/216/26 119/217/26 
f 120/218/26 108/216/26 105/213/26 
f 111/219/26 109/215/26 112/220/26 
f 117/221/26 116/222/26 112/220/26 
f 109/215/26 119/217/26 117/221/26 
f 119/217/26 108/216/26 120/218/26 
f 123/214/26 103/210/26 102/212/26 
f 120/218/26 105/213/26 123/214/26 
f 112/220/26 109/215/26 117/221/26 
s off
g _3
v 50.8 -14.1255 0
v 0 -14.1255 -50.8
v 0 36.6745 0
v 0 -14.1255 0
vn 0.57735 0.57735 -0.57735
vn 0 0 1
vn -1 0 0
vn 0 -1 0
vt 0 0.46994
vt 0.471405 0
vt 0 0
vt 0 0.941344
vt 0.331868 0.471405
vt 0 0.471405
vt 0.333333 0.941344
vt 0.665202 0.471405
vt 0.333333 0.471405
vt 0.666667 0
vt 0.998535 0.471405
vt 0.998535 0
usemtl Custom
f 124/223/27 125/224/27 126/225/27
f 126/226/28 127/227/28 124/228/28
f 125/229/29 127/230/29 126/231/29
f 127/232/30 125/233/30 124/234/30
s off
