<svg width="56" height="55" viewBox="0 0 56 55" fill="none" xmlns="http://www.w3.org/2000/svg">
<path d="M20.3333 3.09474C20.5583 0.244589 24.3109 -0.632322 25.871 1.80069L33.7204 14.0426C34.4196 15.1329 35.7355 15.6699 36.9899 15.3768L51.3008 12.0325C54.1553 11.3655 56.2395 14.7513 54.3155 16.9298L44.9272 27.5599C44.0546 28.5478 43.9509 29.9979 44.6724 31.123L52.3556 43.1057C53.9277 45.5575 51.4615 48.5268 48.7447 47.4531L34.8657 41.9679C33.6809 41.4996 32.3389 41.8131 31.5097 42.7521L21.796 53.7506C19.8946 55.9035 16.2864 54.3537 16.5132 51.4815L17.6214 37.4444C17.7255 36.1264 16.9414 34.8838 15.6947 34.3911L2.28057 29.0895C-0.468488 28.0031 -0.232423 24.075 2.62202 23.408L16.9329 20.0638C18.1874 19.7706 19.1003 18.7128 19.2011 17.4355L20.3333 3.09474Z" fill="#595FE8" fill-opacity="0.5"/>
</svg>
