<svg width="34" height="33" viewBox="0 0 34 33" fill="none" xmlns="http://www.w3.org/2000/svg">
<path d="M15.1301 1.9269C15.7831 0.206437 18.2169 0.206438 18.8699 1.9269L22.0756 10.3736C22.2826 10.9192 22.7177 11.3472 23.2667 11.5453L31.7855 14.6187C33.5472 15.2543 33.5472 17.7457 31.7855 18.3813L23.2667 21.4547C22.7177 21.6528 22.2826 22.0808 22.0756 22.6264L18.8699 31.0731C18.2169 32.7936 15.7831 32.7936 15.1301 31.0731L11.9244 22.6264C11.7174 22.0808 11.2823 21.6528 10.7333 21.4547L2.21452 18.3813C0.452842 17.7457 0.452836 15.2543 2.21451 14.6187L10.7333 11.5453C11.2823 11.3472 11.7174 10.9192 11.9244 10.3736L15.1301 1.9269Z" fill="#595FE8" fill-opacity="0.5"/>
</svg>
