<svg width="73" height="99" viewBox="0 0 73 99" fill="none" xmlns="http://www.w3.org/2000/svg">
<path d="M49.4974 19.7989L79.1959 49.4974L49.4974 79.1959L19.799 49.4974L49.4974 19.7989Z" fill="white"/>
<path fill-rule="evenodd" clip-rule="evenodd" d="M98.9949 49.4975L49.4975 0L0 49.4975L49.4975 98.9949L98.9949 49.4975ZM49.4974 14.1421L84.8528 49.4974L49.4974 84.8528L14.1421 49.4974L49.4974 14.1421Z" fill="white"/>
<path d="M50.9117 12.7279L49.4974 11.3137L48.0832 12.7279L12.7279 48.0832L11.3137 49.4974L12.7279 50.9116L48.0832 86.267L49.4974 87.6812L50.9117 86.267L86.267 50.9116L87.6812 49.4974L86.267 48.0832L50.9117 12.7279ZM22.6274 49.4974L49.4974 22.6274L76.3675 49.4974L49.4974 76.3675L22.6274 49.4974ZM49.4975 2.82843L96.1665 49.4975L49.4975 96.1665L2.82843 49.4975L49.4975 2.82843Z" stroke="#595FE8" stroke-opacity="0.5" stroke-width="4"/>
</svg>
