<svg width="48" height="50" viewBox="0 0 48 50" fill="none" xmlns="http://www.w3.org/2000/svg">
<path d="M31.1282 26.2278L30.6355 26.5064L30.9728 26.961L32.362 28.8332C32.5266 29.0549 32.8397 29.1013 33.0615 28.9368L35.2441 31.8781C35.0223 32.0427 34.9759 32.3558 35.1405 32.5776L37.919 36.322C38.0835 36.5438 38.3967 36.5902 38.6185 36.4256L40.8011 39.367C40.6049 39.5125 40.546 39.7744 40.6489 39.9865C40.4272 39.9065 40.173 39.9927 40.049 40.2032L36.8935 38.3436C37.0337 38.1057 36.9545 37.7992 36.7166 37.659L32.6995 35.2917C32.4616 35.1515 32.1551 35.2307 32.0149 35.4686L28.8594 33.609C28.9996 33.3711 28.9204 33.0646 28.6825 32.9244L26.674 31.7407L26.1863 31.4533L25.9613 31.9727L25.0346 34.1119C24.9248 34.3653 25.0412 34.6597 25.2946 34.7695L23.8386 38.1304C23.5852 38.0206 23.2908 38.137 23.181 38.3904L21.3275 42.6689C21.2178 42.9223 21.3342 43.2166 21.5876 43.3264L20.1316 46.6873C19.9074 46.5902 19.6511 46.6701 19.519 46.8653C19.4774 46.6333 19.2756 46.4563 19.0313 46.4541L19.064 42.7915C19.3402 42.794 19.566 42.5721 19.5685 42.296L19.6101 37.6335C19.6126 37.3574 19.3907 37.1315 19.1146 37.1291L19.1473 33.4665C19.4234 33.469 19.6493 33.2471 19.6517 32.971L19.6725 30.6397L19.6776 30.0737L19.1153 30.1386L16.7993 30.4056C16.525 30.4372 16.3282 30.6852 16.3598 30.9596L12.7213 31.3791C12.6896 31.1047 12.4416 30.908 12.1673 30.9396L7.53527 31.4737C7.26095 31.5053 7.0642 31.7533 7.09583 32.0276L3.45723 32.4471C3.42926 32.2044 3.23191 32.0225 2.99682 32.0056C3.17694 31.8536 3.22934 31.5903 3.10908 31.3777L6.29729 29.5747C6.43322 29.8151 6.73827 29.8998 6.97864 29.7638L11.0373 27.4686C11.2777 27.3327 11.3623 27.0277 11.2264 26.7873L14.4146 24.9843C14.5506 25.2247 14.8556 25.3094 15.096 25.1734L17.1253 24.0258L17.618 23.7472L17.2807 23.2927L15.8915 21.4204C15.7269 21.1987 15.4137 21.1523 15.192 21.3169L13.0094 18.3755C13.2312 18.211 13.2775 17.8978 13.113 17.676L10.3345 13.9316C10.1699 13.7098 9.85676 13.6635 9.635 13.828L7.45241 10.8867C7.64859 10.7411 7.70751 10.4792 7.60455 10.2672C7.82625 10.3472 8.08046 10.2609 8.20449 10.0504L11.36 11.91C11.2198 12.1479 11.299 12.4544 11.5369 12.5946L15.5539 14.962C15.7919 15.1022 16.0984 15.0229 16.2386 14.785L19.3941 16.6446C19.2539 16.8825 19.3331 17.1891 19.571 17.3293L21.5795 18.5129L22.0671 18.8003L22.2922 18.2809L23.2189 16.1417C23.3287 15.8883 23.2123 15.5939 22.9589 15.4841L24.4149 12.1233C24.6683 12.233 24.9627 12.1166 25.0724 11.8632L26.9259 7.58477C27.0357 7.33138 26.9193 7.03698 26.6659 6.92721L28.1219 3.56634C28.3461 3.66346 28.6023 3.58354 28.7345 3.38837C28.7761 3.62036 28.9779 3.79737 29.2221 3.79955L29.1894 7.4621C28.9133 7.45964 28.6875 7.68149 28.685 7.95762L28.6434 12.6201C28.6409 12.8963 28.8628 13.1221 29.1389 13.1246L29.1062 16.7871C28.8301 16.7847 28.6042 17.0065 28.6017 17.2826L28.5809 19.6139L28.5759 20.1799L29.1382 20.1151L31.4542 19.848C31.7285 19.8164 31.9253 19.5684 31.8936 19.2941L35.5322 18.8746C35.5638 19.1489 35.8119 19.3456 36.0862 19.314L40.7182 18.78C40.9925 18.7484 41.1893 18.5003 41.1576 18.226L44.7962 17.8065C44.8242 18.0492 45.0216 18.2312 45.2567 18.248C45.0765 18.4 45.0241 18.6633 45.1444 18.8759L41.9562 20.6789C41.8203 20.4385 41.5152 20.3539 41.2748 20.4898L37.2162 22.785C36.9758 22.9209 36.8911 23.226 37.0271 23.4663L33.8388 25.2693C33.7029 25.0289 33.3979 24.9443 33.1575 25.0802L31.1282 26.2278Z" stroke="#595FE8" stroke-opacity="0.8" stroke-linecap="round" stroke-dasharray="4 4"/>
</svg>
