<svg width="36" height="36" viewBox="0 0 36 36" fill="none" xmlns="http://www.w3.org/2000/svg">
<rect width="36" height="36" rx="8" fill="#595FE8"/>
<path d="M19.1689 25.8379C19.6523 25.8379 20.0303 25.6533 20.4961 25.2139L27.457 18.6836C27.7998 18.3584 27.9316 17.9805 27.9316 17.6553C27.9316 17.3213 27.7998 16.9521 27.457 16.627L20.4961 10.1406C19.9863 9.66602 19.6523 9.47266 19.1865 9.47266C18.4834 9.47266 17.9824 10.0176 17.9824 10.7031V13.832H17.7627C11.6982 13.832 8.88574 17.7256 8.88574 24.1064C8.88574 25.2227 9.36035 25.8027 9.97559 25.8027C10.4414 25.8027 10.8721 25.6533 11.2148 25.0117C12.5947 22.4453 14.5547 21.5049 17.7627 21.5049H17.9824V24.6514C17.9824 25.3369 18.4834 25.8379 19.1689 25.8379Z" fill="white"/>
</svg>
